<svg width="21" height="22" viewBox="0 0 21 22" fill="none" xmlns="http://www.w3.org/2000/svg">
<path d="M10.5 5.25049C11.4375 5.25049 12.3281 5.53174 13.1719 6.00049C14.0156 6.46924 14.6719 7.12549 15.1406 7.96924C15.6094 8.81299 15.8906 9.70361 15.8906 10.6411C15.8906 11.6255 15.6094 12.5161 15.1406 13.3599C14.6719 14.2036 14.0156 14.8599 13.1719 15.3286C12.3281 15.7974 11.4375 16.0317 10.5 16.0317C9.51562 16.0317 8.625 15.7974 7.78125 15.3286C6.9375 14.8599 6.28125 14.2036 5.8125 13.3599C5.34375 12.5161 5.10938 11.6255 5.10938 10.6411C5.10938 9.70361 5.34375 8.81299 5.8125 7.96924C6.28125 7.12549 6.9375 6.46924 7.78125 6.00049C8.625 5.53174 9.51562 5.25049 10.5 5.25049ZM10.5 14.1567C11.4375 14.1567 12.2812 13.8286 12.9844 13.1255C13.6406 12.4692 14.0156 11.6255 14.0156 10.6411C14.0156 9.70361 13.6406 8.85986 12.9844 8.15674C12.2812 7.50049 11.4375 7.12549 10.5 7.12549C9.51562 7.12549 8.67188 7.50049 8.01562 8.15674C7.3125 8.85986 6.98438 9.70361 6.98438 10.6411C6.98438 11.6255 7.3125 12.4692 8.01562 13.1255C8.67188 13.8286 9.51562 14.1567 10.5 14.1567ZM17.3906 5.01611C17.3906 4.68799 17.25 4.40674 17.0156 4.12549C16.7344 3.89111 16.4531 3.75049 16.125 3.75049C15.75 3.75049 15.4688 3.89111 15.2344 4.12549C14.9531 4.40674 14.8594 4.68799 14.8594 5.01611C14.8594 5.39111 14.9531 5.67236 15.2344 5.90674C15.4688 6.18799 15.75 6.28174 16.125 6.28174C16.4531 6.28174 16.7344 6.18799 16.9688 5.90674C17.2031 5.67236 17.3438 5.39111 17.3906 5.01611ZM20.9531 6.28174C20.9531 7.17236 21 8.62549 21 10.6411C21 12.7036 20.9531 14.1567 20.9062 15.0474C20.8594 15.938 20.7188 16.688 20.5312 17.3442C20.25 18.1411 19.7812 18.8442 19.2188 19.4067C18.6562 19.9692 17.9531 20.3911 17.2031 20.6724C16.5469 20.9067 15.75 21.0474 14.8594 21.0942C13.9688 21.1411 12.5156 21.1411 10.5 21.1411C8.4375 21.1411 6.98438 21.1411 6.09375 21.0942C5.20312 21.0474 4.45312 20.9067 3.79688 20.6255C3 20.3911 2.29688 19.9692 1.73438 19.4067C1.17188 18.8442 0.75 18.1411 0.46875 17.3442C0.234375 16.688 0.09375 15.938 0.046875 15.0474C0 14.1567 0 12.7036 0 10.6411C0 8.62549 0 7.17236 0.046875 6.28174C0.09375 5.39111 0.234375 4.59424 0.46875 3.93799C0.75 3.18799 1.17188 2.48486 1.73438 1.92236C2.29688 1.35986 3 0.891113 3.79688 0.609863C4.45312 0.422363 5.20312 0.281738 6.09375 0.234863C6.98438 0.187988 8.4375 0.141113 10.5 0.141113C12.5156 0.141113 13.9688 0.187988 14.8594 0.234863C15.75 0.281738 16.5469 0.422363 17.2031 0.609863C17.9531 0.891113 18.6562 1.35986 19.2188 1.92236C19.7812 2.48486 20.25 3.18799 20.5312 3.93799C20.7188 4.59424 20.8594 5.39111 20.9531 6.28174ZM18.7031 16.8286C18.8906 16.313 18.9844 15.4692 19.0781 14.2974C19.0781 13.6411 19.125 12.6567 19.125 11.3911V9.89111C19.125 8.62549 19.0781 7.64111 19.0781 6.98486C18.9844 5.81299 18.8906 4.96924 18.7031 4.45361C18.3281 3.51611 17.625 2.81299 16.6875 2.43799C16.1719 2.25049 15.3281 2.15674 14.1562 2.06299C13.4531 2.06299 12.4688 2.01611 11.25 2.01611H9.75C8.48438 2.01611 7.5 2.06299 6.84375 2.06299C5.67188 2.15674 4.82812 2.25049 4.3125 2.43799C3.32812 2.81299 2.67188 3.51611 2.29688 4.45361C2.10938 4.96924 1.96875 5.81299 1.92188 6.98486C1.875 7.68799 1.875 8.67236 1.875 9.89111V11.3911C1.875 12.6567 1.875 13.6411 1.92188 14.2974C1.96875 15.4692 2.10938 16.313 2.29688 16.8286C2.67188 17.813 3.375 18.4692 4.3125 18.8442C4.82812 19.0317 5.67188 19.1724 6.84375 19.2192C7.5 19.2661 8.48438 19.2661 9.75 19.2661H11.25C12.5156 19.2661 13.5 19.2661 14.1562 19.2192C15.3281 19.1724 16.1719 19.0317 16.6875 18.8442C17.625 18.4692 18.3281 17.7661 18.7031 16.8286Z" fill="#FFCB47"/>
</svg>
