<svg width="24" height="21" viewBox="0 0 24 21" fill="none" xmlns="http://www.w3.org/2000/svg">
<path d="M21.5156 5.76611C22.4531 5.06299 23.2969 4.21924 24 3.18799C23.0625 3.60986 22.125 3.89111 21.1875 3.98486C22.2188 3.32861 22.9688 2.43799 23.3438 1.26611C22.3594 1.82861 21.3281 2.25049 20.2031 2.43799C19.7344 1.96924 19.1719 1.59424 18.5625 1.31299C17.9531 1.03174 17.2969 0.891113 16.5938 0.891113C15.7031 0.891113 14.9062 1.12549 14.1562 1.54736C13.4062 2.01611 12.7969 2.62549 12.375 3.37549C11.9062 4.12549 11.7188 4.96924 11.7188 5.81299C11.7188 6.18799 11.7188 6.56299 11.8125 6.93799C9.79688 6.84424 7.92188 6.37549 6.14062 5.43799C4.35938 4.54736 2.90625 3.32861 1.6875 1.78174C1.21875 2.57861 0.984375 3.42236 0.984375 4.26611C0.984375 5.10986 1.17188 5.90674 1.59375 6.60986C1.96875 7.35986 2.53125 7.92236 3.1875 8.39111C2.39062 8.39111 1.64062 8.15674 0.984375 7.73486V7.82861C0.984375 9.00049 1.35938 10.0317 2.10938 10.9224C2.85938 11.8599 3.79688 12.4224 4.92188 12.6567C4.45312 12.7505 4.03125 12.7974 3.60938 12.7974C3.32812 12.7974 3 12.7974 2.71875 12.7505C3 13.7349 3.5625 14.5317 4.40625 15.188C5.25 15.8442 6.1875 16.1255 7.3125 16.1255C5.48438 17.5317 3.42188 18.2349 1.17188 18.2349C0.703125 18.2349 0.328125 18.2349 0 18.188C2.25 19.688 4.78125 20.3911 7.54688 20.3911C10.4062 20.3911 12.9375 19.688 15.1875 18.188C17.2031 16.8755 18.7969 15.1411 19.9219 12.8911C21 10.8286 21.5625 8.62549 21.5625 6.37549C21.5625 6.09424 21.5156 5.90674 21.5156 5.76611Z" fill="#FFCB47"/>
</svg>
